<?xml version="1.0" encoding="UTF-8"?>
<svg id="mapa_iteractivo" data-name="mapa iteractivo" xmlns="http://www.w3.org/2000/svg" viewBox="0 0 520.53 346.18">
  <defs>
    <style>
      .cls-1 {
        fill: #ca8d2e;
      }

      .cls-2 {
        fill: #fff;
      }

      .cls-3 {
        fill: red;
      }

      .cls-4 {
        fill: #0097ff;
      }

      .cls-5 {
        stroke-dasharray: 15.06 15.06;
      }

      .cls-5, .cls-6 {
        fill: none;
        stroke: red;
        stroke-miterlimit: 10;
        stroke-width: 8px;
      }

      .cls-7 {
        fill: #765030;
      }
    </style>
  </defs>
  <g id="fondo">
    <path id="tierra" class="cls-1" d="M.75,193.96c-1.57-2.88-.58-6.49,2.22-8.2,6.41-3.91,12.65-8.14,17.75-13.62,7.53-8.1,12.38-19.51,8.84-30.44-.66-2.03-.9-4.18-.41-6.26,2.04-8.73,8.25-7.05,13.52-7.71,3.5-.43,7.48-3.39,6.27-6.7-5.2,1.93-10.6-3.9-10.5-9.44s3.7-10.33,7.13-14.68c13.27-16.84,29.89-35.31,51.31-34.46,5.04.2,10.33,1.48,14.97-.51s7.02-9.41,2.63-11.9c7.88-1.92,15.95,1.42,23.92,2.95s17.99.19,21.35-7.19c1.61-3.54,1.67-8.31,5.09-10.16,2.52-1.36,5.81-.37,8.34-1.7,6.53-3.42-.48-13.76,1.95-20.72,1.91-5.49,9.07-6.91,14.85-6.31s11.97,2.26,17.17-.34c4.96-2.48,9.35-8.71,14.62-5.83.95.52,1.74,1.28,2.38,2.15,4.59,6.21,7.79,13.45,9.31,21.03.79,3.95,1.33,8.37,4.4,10.97,3.18,2.7,7.84,2.39,11.98,1.94,10.57-1.16,21.14-2.31,31.72-3.47-4.09,3.17-3.54,10.07.14,13.71s9.35,4.51,14.49,3.86c5.07-.64,10.25-2.78,13.11-7.01,4.37-6.46,2.26-15.8,6.77-22.16,4.89-6.9,15.14-7.04,23.28-4.77s16.2,6.3,24.59,5.3c6.96-.83,13-5.02,19.59-7.42s15.19-2.42,19.27,3.28c5.51,7.69-.08,21.74,10.41,24.89,1.18.35,2.41.47,3.65.47,15.31,0,34.92,2.05,40.78,16.53,6.66,16.46,19.56,28.32,34.01,38.64,5.44,3.88,11.56,7.69,14,13.9,1.9,4.84,1.19,10.26.49,15.41-2.05,14.98-3.68,30.95,2.83,44.6,2.85,5.98,7.15,11.22,9.69,17.34s2.91,13.88-1.61,18.73c-4.99,5.36-14.98,6.41-16.49,13.58-.41,1.97-.02,4.06-.61,5.99-1.44,4.73-7.44,5.86-11.69,8.38s-5.36,10.97-.42,10.84c-4.54,5.13-9.4,11.47-7.76,18.12.78,3.16,2.94,5.79,4.07,8.83,2.64,7.1-.66,14.89-3.91,21.73-5.16,10.88-11.05,22.52-21.84,27.86-4.83,2.39-10.26,3.28-15.62,3.89-9.37,1.07-18.82,1.4-28.24.97-9.3-.42-18.79-1.56-27.8.79-9.33,2.43-17.31,8.4-26.21,12.13-14.98,6.28-32.65,5.82-47.28-1.23-11.06-5.32-20.82-14.3-33.01-15.68-3.42-.39-6.98-.16-10.19-1.39-2.42-.93-4.48-2.62-6.89-3.58-5.15-2.05-10.96-.42-16.25,1.22-14.92,4.61-29.84,9.21-44.76,13.82-4.81,1.49-9.67,2.98-14.68,3.43-7.41.66-14.81-1-22.07-2.64-10.53-2.39-21.07-4.78-31.6-7.17-3.06-.69-6.19-1.42-8.81-3.15-3.05-2.01-5.1-5.17-7.07-8.25l-22.76-35.56c-4.45-6.95-14.81-13.22-23.03-14-10.7-1.01-21.95-4.79-28-13.12-4.72-6.49-4.65-16.14-10.9-21.17-4.07-3.27-9.9-3.71-13.89-7.07-2.05-1.73-3.44-4.09-4.8-6.4-4.78-8.17-9.17-17.36-13.81-25.88Z"/>
    <path class="cls-7" d="M188.02,250.2l-.54-.61c-3.6,3.73-7.13,7.51-10.33,11.6-3.31-4.43-6.88-8.66-10.52-12.82l-.71-.81c-4.68,4.85-9.27,9.77-13.46,15.07-2.85-3.66-5.84-7.21-8.89-10.7l-.71-.81c-4.98,5.17-9.89,10.4-14.28,16.1,5.03-4.09,9.66-8.58,14.21-13.18,2.89,3.25,5.85,6.44,8.92,9.52-.02.03-.05.06-.07.09.03-.02.06-.05.09-.07,1.62,1.62,3.27,3.22,4.97,4.76-1.31-1.88-2.68-3.71-4.08-5.52,4.65-3.87,8.98-8.06,13.23-12.34,4.43,4.97,8.96,9.85,13.91,14.3-.82-1.18-1.67-2.34-2.53-3.49,3.6-2.97,6.93-6.2,10.21-9.5,3.32,3.73,6.73,7.4,10.45,10.74-3-4.33-6.4-8.37-9.86-12.33Z"/>
    <path class="cls-7" d="M286.78,243.26l-.54-.61c-3.6,3.73-7.13,7.51-10.33,11.6-3.31-4.43-6.88-8.66-10.52-12.82l-.71-.81c-4.68,4.85-9.27,9.77-13.46,15.07-2.85-3.66-5.84-7.21-8.89-10.7l-.71-.81c-4.98,5.17-9.89,10.4-14.28,16.1,5.03-4.09,9.66-8.58,14.21-13.18,2.89,3.25,5.85,6.44,8.92,9.52-.02.03-.05.06-.07.09.03-.02.06-.05.09-.07,1.62,1.62,3.27,3.22,4.97,4.76-1.31-1.88-2.68-3.71-4.08-5.52,4.65-3.87,8.98-8.06,13.23-12.34,4.43,4.97,8.96,9.85,13.91,14.3-.82-1.18-1.67-2.34-2.53-3.49,3.6-2.97,6.93-6.2,10.21-9.5,3.32,3.73,6.73,7.4,10.45,10.74-3-4.33-6.4-8.37-9.86-12.33Z"/>
    <path class="cls-7" d="M366.78,222.76l-.54-.61c-3.6,3.73-7.13,7.51-10.33,11.6-3.31-4.43-6.88-8.66-10.52-12.82l-.71-.81c-4.68,4.85-9.27,9.77-13.46,15.07-2.85-3.66-5.84-7.21-8.89-10.7l-.71-.81c-4.98,5.17-9.89,10.4-14.28,16.1,5.03-4.09,9.66-8.58,14.21-13.18,2.89,3.25,5.85,6.44,8.92,9.52-.02.03-.05.06-.07.09.03-.02.06-.05.09-.07,1.62,1.62,3.27,3.22,4.97,4.76-1.31-1.88-2.68-3.71-4.08-5.52,4.65-3.87,8.98-8.06,13.23-12.34,4.43,4.97,8.96,9.85,13.91,14.3-.82-1.18-1.67-2.34-2.53-3.49,3.6-2.97,6.93-6.2,10.21-9.5,3.32,3.73,6.73,7.4,10.45,10.74-3-4.33-6.4-8.37-9.86-12.33Z"/>
    <path class="cls-7" d="M379.28,298.76l-.54-.61c-3.6,3.73-7.13,7.51-10.33,11.6-3.31-4.43-6.88-8.66-10.52-12.82l-.71-.81c-4.68,4.85-9.27,9.77-13.46,15.07-2.85-3.66-5.84-7.21-8.89-10.7l-.71-.81c-4.98,5.17-9.89,10.4-14.28,16.1,5.03-4.09,9.66-8.58,14.21-13.18,2.89,3.25,5.85,6.44,8.92,9.52-.02.03-.05.06-.07.09.03-.02.06-.05.09-.07,1.62,1.62,3.27,3.22,4.97,4.76-1.31-1.88-2.68-3.71-4.08-5.52,4.65-3.87,8.98-8.06,13.23-12.34,4.43,4.97,8.96,9.85,13.91,14.3-.82-1.18-1.67-2.34-2.53-3.49,3.6-2.97,6.93-6.2,10.21-9.5,3.32,3.73,6.73,7.4,10.45,10.74-3-4.33-6.4-8.37-9.86-12.33Z"/>
    <path class="cls-7" d="M450.78,268.76l-.54-.61c-3.6,3.73-7.13,7.51-10.33,11.6-3.31-4.43-6.88-8.66-10.52-12.82l-.71-.81c-4.68,4.85-9.27,9.77-13.46,15.07-2.85-3.66-5.84-7.21-8.89-10.7l-.71-.81c-4.98,5.17-9.89,10.4-14.28,16.1,5.03-4.09,9.66-8.58,14.21-13.18,2.89,3.25,5.85,6.44,8.92,9.52-.02.03-.05.06-.07.09.03-.02.06-.05.09-.07,1.62,1.62,3.27,3.22,4.97,4.76-1.31-1.88-2.68-3.71-4.08-5.52,4.65-3.87,8.98-8.06,13.23-12.34,4.43,4.97,8.96,9.85,13.91,14.3-.82-1.18-1.67-2.34-2.53-3.49,3.6-2.97,6.93-6.2,10.21-9.5,3.32,3.73,6.73,7.4,10.45,10.74-3-4.33-6.4-8.37-9.86-12.33Z"/>
    <path class="cls-7" d="M485.28,172.54l-.54-.85c-3.6,5.21-7.13,10.5-10.33,16.22-3.31-6.19-6.88-12.11-10.52-17.93l-.71-1.14c-4.68,6.78-9.27,13.66-13.46,21.07-2.85-5.12-5.84-10.07-8.89-14.95l-.71-1.14c-4.98,7.22-9.89,14.54-14.28,22.5,5.03-5.72,9.66-12,14.21-18.42,2.89,4.54,5.85,9.01,8.92,13.31-.02.04-.05.08-.07.13.03-.03.06-.07.09-.1,1.62,2.27,3.27,4.51,4.97,6.66-1.31-2.63-2.68-5.19-4.08-7.72,4.65-5.41,8.98-11.26,13.23-17.26,4.43,6.94,8.96,13.76,13.91,19.99-.82-1.65-1.67-3.27-2.53-4.88,3.6-4.15,6.93-8.66,10.21-13.28,3.32,5.22,6.73,10.34,10.45,15.02-3-6.05-6.4-11.69-9.86-17.23Z"/>
    <path class="cls-7" d="M283.28,64.04l-.54-.85c-3.6,5.21-7.13,10.5-10.33,16.22-3.31-6.19-6.88-12.11-10.52-17.93l-.71-1.14c-4.68,6.78-9.27,13.66-13.46,21.07-2.85-5.12-5.84-10.07-8.89-14.95l-.71-1.14c-4.98,7.22-9.89,14.54-14.28,22.5,5.03-5.72,9.66-12,14.21-18.42,2.89,4.54,5.85,9.01,8.92,13.31-.02.04-.05.08-.07.13.03-.03.06-.07.09-.1,1.62,2.27,3.27,4.51,4.97,6.66-1.31-2.63-2.68-5.19-4.08-7.72,4.65-5.41,8.98-11.26,13.23-17.26,4.43,6.94,8.96,13.76,13.91,19.99-.82-1.65-1.67-3.27-2.53-4.88,3.6-4.15,6.93-8.66,10.21-13.28,3.32,5.22,6.73,10.34,10.45,15.02-3-6.05-6.4-11.69-9.86-17.23Z"/>
    <path class="cls-7" d="M165.43,67.08l-.4-.63c-2.67,3.87-5.29,7.79-7.67,12.03-2.46-4.59-5.11-8.98-7.81-13.3l-.53-.84c-3.47,5.03-6.88,10.14-9.98,15.63-2.11-3.8-4.33-7.47-6.6-11.09l-.53-.84c-3.7,5.36-7.34,10.78-10.6,16.69,3.73-4.24,7.17-8.9,10.54-13.66,2.15,3.37,4.34,6.68,6.62,9.88-.02.03-.04.06-.05.09.02-.03.04-.05.07-.08,1.2,1.68,2.42,3.34,3.69,4.94-.97-1.95-1.99-3.85-3.03-5.72,3.45-4.01,6.66-8.36,9.82-12.8,3.28,5.15,6.65,10.21,10.32,14.83-.61-1.23-1.24-2.42-1.88-3.62,2.67-3.08,5.14-6.43,7.57-9.86,2.47,3.87,4.99,7.67,7.75,11.14-2.23-4.49-4.75-8.68-7.32-12.78Z"/>
    <path class="cls-7" d="M422.68,66.88l-.3-.47c-1.99,2.88-3.94,5.8-5.71,8.96-1.83-3.42-3.8-6.69-5.81-9.91l-.39-.63c-2.59,3.75-5.12,7.55-7.44,11.64-1.57-2.83-3.23-5.57-4.91-8.26l-.39-.63c-2.75,3.99-5.46,8.03-7.89,12.43,2.78-3.16,5.34-6.63,7.85-10.18,1.6,2.51,3.23,4.98,4.93,7.36-.01.02-.03.05-.04.07.02-.02.03-.04.05-.06.9,1.25,1.81,2.49,2.75,3.68-.72-1.45-1.48-2.87-2.26-4.26,2.57-2.99,4.96-6.22,7.31-9.54,2.45,3.84,4.95,7.61,7.69,11.05-.45-.91-.93-1.81-1.4-2.7,1.99-2.29,3.83-4.79,5.64-7.34,1.84,2.88,3.72,5.71,5.78,8.3-1.66-3.34-3.53-6.46-5.45-9.52Z"/>
  </g>
  <path id="lago" class="cls-4" d="M287.62,155c2.64-4.54,6.98-7.87,11.59-10.39,13.22-7.22,29.59-8.42,43.72-3.2,2.79,1.03,5.5,2.3,8.38,3.04,5.33,1.38,10.98.9,16.37,2.04,10.94,2.31,19.97,11.86,21.68,22.91.08.51.14,1.04-.06,1.52-.4.95-1.61,1.2-2.64,1.31-9.16.99-18.38,1.36-27.59,1.1-3.98-.11-8.01-.34-11.92.43-4.19.82-8.1,2.74-12.28,3.56-3.67.72-7.45.57-11.19.43-7.82-.31-15.63-.62-23.45-.93-12.95-.52-19.77-9.46-12.6-21.81Z"/>
  <polygon id="equis" class="cls-3" points="402.69 118.84 409.19 106.34 426.19 119.84 435.69 104.84 449.19 113.34 436.69 127.84 451.19 139.84 445.69 148.34 428.19 137.34 416.69 152.34 403.19 144.34 416.69 128.84 402.69 118.84"/>
  <path id="bandera" d="M196.19,36.57v-1.23h-2.25v40h2.25v-16.58c7.64,2.48,21.91-5.06,29-.17v-22.25c-10.03-3.18-21.26,3.69-29,.23Z"/>
  <path id="volcan" class="cls-7" d="M369.82,76.42c4.01,8.71,8.25,17.31,13.37,25.42-4.1-8.32-9.03-19.82-13.2-29.51-.21-.75-.53-1.49-.94-2.19-.59-1.37-1.16-2.69-1.71-3.95l-.25-.57s-.63-.01-.63-.01c-5.69-.01-11.39-.26-17.01.94-1.54,5.23-4.4,10.07-7.18,14.77-1.81,2.98-3.69,5.92-5.64,8.83-1.76-2.14-3.7-5.1-5.19-7.12l-.75-1.06c-3.6,5.18-7.56,10.1-11.99,14.62,5.05-2.52,8.98-6.8,12.09-11.46,1.69,1.97,3.46,3.94,5.63,5.35-.98,1.46-1.97,2.92-2.97,4.36,1.14-1.36,2.27-2.73,3.39-4.11.2.12.4.25.61.36-.15-.16-.31-.35-.46-.53,4.04-5,7.88-10.21,10.89-15.87.64-.3,1.36-.73,1.76-.41.7.56-.76,2.48-.56,5.44.1,1.52.66,3.78,1.69,3.94.94.15,2.18-1.46,2.62-3,.58-2.01-.39-3.22.38-3.94.69-.64,2.37-.49,3.19.38,1.13,1.21-.23,2.92.94,5.25.43.85,1.31,2,2.06,1.88.54-.09.69-.77,1.69-2.81,1.3-2.66,1.73-2.91,2.06-3,.89-.24,2.07.42,2.62,1.31.98,1.57-.25,3.33.56,3.94.58.43,1.8-.03,2.44-.75.8-.9-.29-2.02-.19-4.12.06-1.17.39-1.69.69-2.36Z"/>
  <path id="lava" class="cls-3" d="M350.38,63.4c-1.76-2.86-5.11-4.53-8.32-4.13-1.99.2-2.34-2.75-.36-3.02,4.03.3,7.64,3.4,8.68,7.15h0ZM353.19,60.96c.02-5-2.45-10.09-6.61-13.08-1.8-.85-3.1,1.81-1.33,2.71,4.03,1.95,7,5.89,7.94,10.37h0ZM357.31,59.28l.94-7.61.37-7.71c0-.09,0-.2-.01-.3-.33-1.96-3.25-1.52-2.99.45l.02.11,1.12,7.47.56,7.59h0ZM362.19,59.84c1.37-4.21,4.29-7.47,7.77-9.53,1.42-1.4-.63-3.54-2.09-2.19-3.35,3.18-5.33,7.48-5.68,11.72h0ZM365.19,61.9c2.13-2.57,5.09-3.52,7.94-3.69,1.87-.72.85-3.53-1.05-2.87-3.27,1.17-5.78,3.71-6.89,6.56h0Z"/>
  <g id="camino">
    <g>
      <path class="cls-6" d="M400.19,127.34c-2.34-.07-4.84-.15-7.49-.25"/>
      <path class="cls-5" d="M377.66,126.35c-17.9-1.08-40.19-3.11-65.47-7.01-58.24-8.98-77.46-21.16-123-19-49.94,2.37-69.36,18.44-74.5,23-5.14,4.56-29.86,26.51-25.5,54.5,3.8,24.35,27.13,37.38,34.5,41.5,20.36,11.37,39.59,10.53,66.5,9,9.13-.52,42.25-2.84,90.5-18.5,38.06-12.35,42.97-19.18,66.5-20.5,11.13-.63,51-2.87,61.5,18.5,7.23,14.71-2.07,35.29-13,47.5-13.47,15.05-33.07,21.48-89.5,24-91.27,4.07-130.95-8.68-160.5,18-4.88,4.41-8.66,9.15-11.59,13.67"/>
      <path class="cls-6" d="M130.32,317.53c-1.28,2.49-2.31,4.8-3.13,6.81"/>
    </g>
  </g>
  <path id="calavera" class="cls-2" d="M215.57,44.18c0-2.12-2.39-3.84-5.33-3.84s-5.33,1.72-5.33,3.84c0,.9.43,1.72,1.14,2.37-.07.24-.11.49-.11.76,0,1.41,1.15,2.56,2.56,2.56h3.59c1.41,0,2.56-1.15,2.56-2.56,0-.29-.05-.57-.14-.83.67-.64,1.06-1.44,1.06-2.3ZM208.9,45.67c-.57,0-1.03-.57-1.03-1.28s.46-1.28,1.03-1.28,1.03.57,1.03,1.28-.46,1.28-1.03,1.28ZM212.59,45.67c-.57,0-1.03-.57-1.03-1.28s.46-1.28,1.03-1.28,1.03.57,1.03,1.28-.46,1.28-1.03,1.28ZM215.95,53.81c-.06.16-.22.26-.38.26-.05,0-.1,0-.15-.03l-4.67-1.79-4.67,1.79s-.1.03-.15.03c-.17,0-.32-.1-.38-.26-.08-.21.02-.45.24-.53l3.82-1.46-3.82-1.46c-.21-.08-.32-.32-.24-.53.08-.21.32-.32.53-.24l4.67,1.79,4.67-1.79c.21-.08.45.02.53.24.08.21-.02.45-.24.53l-3.82,1.46,3.82,1.46c.21.08.32.32.24.53Z"/>
</svg>